# This file uses centimeters as units for non-parametric coordinates.

mtllib ext_cube.mtl
g default
v -5.000000 -5.000000 5.000000
v 5.000000 -5.000000 5.000000
v -5.000000 -5.000000 -5.000000
v 5.000000 -5.000000 -5.000000
vt 1.000000 1.000000
vt 0.000000 1.000000
vt 0.000000 -0.000000
vt 1.000000 -0.000000
vn 0.000000 -1.000000 0.000000
vn 0.000000 -1.000000 0.000000
vn 0.000000 -1.000000 0.000000
vn 0.000000 -1.000000 0.000000
s off
g polySurface10 pCube1
usemtl lambert6SG
f 3/1/1 4/2/2 2/3/3 1/4/4
g default
v -5.000000 -5.000000 5.000000
v 5.000000 -5.000000 5.000000
v 5.000000 5.000000 5.000000
v -5.000000 5.000000 5.000000
vt -0.000000 -0.000000
vt 1.000000 -0.000000
vt 1.000000 1.000000
vt -0.000000 1.000000
vn 0.000000 0.000000 1.000000
vn 0.000000 0.000000 1.000000
vn 0.000000 0.000000 1.000000
vn 0.000000 0.000000 1.000000
s off
g pCube1 polySurface1
usemtl initialShadingGroup
f 5/5/5 6/6/6 7/7/7 8/8/8
g default
v -5.000000 -5.000000 -5.000000
v -5.000000 -5.000000 5.000000
v -5.000000 5.000000 5.000000
v -5.000000 5.000000 -5.000000
vt -0.000000 1.000000
vt 0.000000 -0.000000
vt 1.000000 -0.000000
vt 1.000000 1.000000
vn -1.000000 0.000000 0.000000
vn -1.000000 0.000000 0.000000
vn -1.000000 0.000000 0.000000
vn -1.000000 0.000000 0.000000
s off
g pCube1 polySurface7
usemtl lambert4SG
f 9/9/9 10/10/10 11/11/11 12/12/12
g default
v -5.000000 5.000000 -5.000000
v 5.000000 5.000000 -5.000000
v 5.000000 -5.000000 -5.000000
v -5.000000 -5.000000 -5.000000
vt 1.000000 1.000000
vt -0.000000 1.000000
vt -0.000000 -0.000000
vt 1.000000 -0.000000
vn 0.000000 0.000000 -1.000000
vn 0.000000 0.000000 -1.000000
vn 0.000000 0.000000 -1.000000
vn 0.000000 0.000000 -1.000000
s off
g pCube1 polySurface6
usemtl lambert3SG
f 13/13/13 14/14/14 15/15/15 16/16/16
g default
v -5.000000 5.000000 5.000000
v 5.000000 5.000000 5.000000
v -5.000000 5.000000 -5.000000
v 5.000000 5.000000 -5.000000
vt -0.000000 -0.000000
vt 1.000000 0.000000
vt 1.000000 1.000000
vt -0.000000 1.000000
vn 0.000000 1.000000 0.000000
vn 0.000000 1.000000 0.000000
vn 0.000000 1.000000 0.000000
vn 0.000000 1.000000 0.000000
s off
g pCube1 polySurface9
usemtl lambert5SG
f 17/17/17 18/18/18 20/19/19 19/20/20
g default
v 5.000000 -5.000000 5.000000
v 5.000000 -5.000000 -5.000000
v 5.000000 5.000000 -5.000000
v 5.000000 5.000000 5.000000
vt 1.000000 -0.000000
vt 1.000000 1.000000
vt 0.000000 1.000000
vt 0.000000 -0.000000
vn 1.000000 0.000000 0.000000
vn 1.000000 0.000000 0.000000
vn 1.000000 0.000000 0.000000
vn 1.000000 0.000000 0.000000
s off
g pCube1 polySurface4
usemtl lambert2SG
f 21/21/21 22/22/22 23/23/23 24/24/24
